<svg width="109" height="54" viewBox="0 0 109 54" fill="none" xmlns="http://www.w3.org/2000/svg">
<rect width="109" height="53" transform="translate(0 0.147461)" fill="#F78D40"/>
<path d="M17.463 15.4195C17.5143 15.4241 17.582 15.4288 17.666 15.4335C17.75 15.4335 17.8643 15.4335 18.009 15.4335C18.6017 15.4335 19.0427 15.2841 19.332 14.9855C19.626 14.6821 19.773 14.2598 19.773 13.7185C19.773 13.1678 19.6307 12.7455 19.346 12.4515C19.0613 12.1575 18.6203 12.0105 18.023 12.0105C17.7617 12.0105 17.575 12.0175 17.463 12.0315V15.4195ZM20.697 13.7185C20.697 14.1385 20.6317 14.5048 20.501 14.8175C20.3703 15.1255 20.1837 15.3845 19.941 15.5945C19.703 15.7998 19.4137 15.9538 19.073 16.0565C18.737 16.1545 18.3637 16.2035 17.953 16.2035C17.757 16.2035 17.5353 16.1941 17.288 16.1755C17.0407 16.1615 16.805 16.1288 16.581 16.0775V11.3665C16.805 11.3151 17.043 11.2825 17.295 11.2685C17.547 11.2545 17.771 11.2475 17.967 11.2475C18.373 11.2475 18.744 11.2965 19.08 11.3945C19.416 11.4878 19.703 11.6371 19.941 11.8425C20.1837 12.0431 20.3703 12.2998 20.501 12.6125C20.6317 12.9205 20.697 13.2891 20.697 13.7185ZM21.8001 16.1475V11.2965H24.9151V12.0455H22.6821V13.2425H24.6701V13.9775H22.6821V15.3985H25.0831V16.1475H21.8001ZM27.4277 16.1475C27.0777 15.3915 26.7393 14.6005 26.4127 13.7745C26.0907 12.9485 25.7897 12.1225 25.5097 11.2965H26.4827C26.5947 11.6231 26.709 11.9568 26.8257 12.2975C26.9423 12.6381 27.059 12.9741 27.1757 13.3055C27.2923 13.6321 27.409 13.9495 27.5257 14.2575C27.6423 14.5655 27.7567 14.8478 27.8687 15.1045C27.976 14.8478 28.088 14.5678 28.2047 14.2645C28.3213 13.9565 28.438 13.6368 28.5547 13.3055C28.676 12.9741 28.795 12.6381 28.9117 12.2975C29.0283 11.9568 29.1403 11.6231 29.2477 11.2965H30.1927C29.908 12.1225 29.6047 12.9485 29.2827 13.7745C28.9607 14.6005 28.6247 15.3915 28.2747 16.1475H27.4277ZM30.96 16.1475V11.2965H34.075V12.0455H31.842V13.2425H33.83V13.9775H31.842V15.3985H34.243V16.1475H30.96ZM38.2675 15.3845V16.1475H35.2015V11.2965H36.0835V15.3845H38.2675ZM39.5215 13.7185C39.5215 13.9845 39.5542 14.2271 39.6195 14.4465C39.6849 14.6611 39.7782 14.8455 39.8995 14.9995C40.0255 15.1488 40.1772 15.2655 40.3545 15.3495C40.5319 15.4335 40.7325 15.4755 40.9565 15.4755C41.1759 15.4755 41.3742 15.4335 41.5515 15.3495C41.7289 15.2655 41.8782 15.1488 41.9995 14.9995C42.1255 14.8455 42.2212 14.6611 42.2865 14.4465C42.3519 14.2271 42.3845 13.9845 42.3845 13.7185C42.3845 13.4525 42.3519 13.2121 42.2865 12.9975C42.2212 12.7781 42.1255 12.5938 41.9995 12.4445C41.8782 12.2905 41.7289 12.1715 41.5515 12.0875C41.3742 12.0035 41.1759 11.9615 40.9565 11.9615C40.7325 11.9615 40.5319 12.0035 40.3545 12.0875C40.1772 12.1715 40.0255 12.2905 39.8995 12.4445C39.7782 12.5985 39.6849 12.7828 39.6195 12.9975C39.5542 13.2121 39.5215 13.4525 39.5215 13.7185ZM43.3085 13.7185C43.3085 14.1338 43.2455 14.5001 43.1195 14.8175C42.9982 15.1348 42.8302 15.4008 42.6155 15.6155C42.4055 15.8255 42.1582 15.9841 41.8735 16.0915C41.5889 16.1988 41.2855 16.2525 40.9635 16.2525C40.6415 16.2525 40.3359 16.1988 40.0465 16.0915C39.7619 15.9841 39.5122 15.8255 39.2975 15.6155C39.0875 15.4008 38.9195 15.1348 38.7935 14.8175C38.6675 14.5001 38.6045 14.1338 38.6045 13.7185C38.6045 13.3031 38.6675 12.9391 38.7935 12.6265C38.9195 12.3091 39.0899 12.0431 39.3045 11.8285C39.5239 11.6138 39.7759 11.4528 40.0605 11.3455C40.3452 11.2381 40.6462 11.1845 40.9635 11.1845C41.2809 11.1845 41.5819 11.2381 41.8665 11.3455C42.1512 11.4528 42.3985 11.6138 42.6085 11.8285C42.8232 12.0431 42.9935 12.3091 43.1195 12.6265C43.2455 12.9391 43.3085 13.3031 43.3085 13.7185ZM45.7881 11.2475C46.4928 11.2475 47.0318 11.3758 47.4051 11.6325C47.7831 11.8891 47.9721 12.2905 47.9721 12.8365C47.9721 13.1211 47.9208 13.3661 47.8181 13.5715C47.7201 13.7721 47.5755 13.9378 47.3841 14.0685C47.1928 14.1945 46.9595 14.2878 46.6841 14.3485C46.4088 14.4091 46.0938 14.4395 45.7391 14.4395H45.2981V16.1475H44.4161V11.3665C44.6215 11.3198 44.8478 11.2895 45.0951 11.2755C45.3471 11.2568 45.5781 11.2475 45.7881 11.2475ZM45.8511 12.0105C45.6271 12.0105 45.4428 12.0175 45.2981 12.0315V13.6835H45.7251C46.1498 13.6835 46.4765 13.6251 46.7051 13.5085C46.9338 13.3871 47.0481 13.1608 47.0481 12.8295C47.0481 12.6708 47.0178 12.5378 46.9571 12.4305C46.8965 12.3231 46.8125 12.2391 46.7051 12.1785C46.5978 12.1178 46.4695 12.0758 46.3201 12.0525C46.1755 12.0245 46.0191 12.0105 45.8511 12.0105ZM48.9174 16.1475V11.2965H52.0324V12.0455H49.7994V13.2425H51.7874V13.9775H49.7994V15.3985H52.2004V16.1475H48.9174ZM54.041 15.4195C54.0923 15.4241 54.16 15.4288 54.244 15.4335C54.328 15.4335 54.4423 15.4335 54.587 15.4335C55.1797 15.4335 55.6207 15.2841 55.91 14.9855C56.204 14.6821 56.351 14.2598 56.351 13.7185C56.351 13.1678 56.2087 12.7455 55.924 12.4515C55.6393 12.1575 55.1983 12.0105 54.601 12.0105C54.3397 12.0105 54.153 12.0175 54.041 12.0315V15.4195ZM57.275 13.7185C57.275 14.1385 57.2097 14.5048 57.079 14.8175C56.9483 15.1255 56.7617 15.3845 56.519 15.5945C56.281 15.7998 55.9917 15.9538 55.651 16.0565C55.315 16.1545 54.9417 16.2035 54.531 16.2035C54.335 16.2035 54.1133 16.1941 53.866 16.1755C53.6187 16.1615 53.383 16.1288 53.159 16.0775V11.3665C53.383 11.3151 53.621 11.2825 53.873 11.2685C54.125 11.2545 54.349 11.2475 54.545 11.2475C54.951 11.2475 55.322 11.2965 55.658 11.3945C55.994 11.4878 56.281 11.6371 56.519 11.8425C56.7617 12.0431 56.9483 12.2998 57.079 12.6125C57.2097 12.9205 57.275 13.2891 57.275 13.7185ZM61.6149 16.2035C61.3582 16.2035 61.0992 16.1941 60.8379 16.1755C60.5766 16.1615 60.3479 16.1288 60.1519 16.0775V11.3665C60.2546 11.3478 60.3642 11.3315 60.4809 11.3175C60.5976 11.2988 60.7166 11.2848 60.8379 11.2755C60.9592 11.2661 61.0782 11.2591 61.1949 11.2545C61.3162 11.2498 61.4306 11.2475 61.5379 11.2475C61.8319 11.2475 62.1049 11.2708 62.3569 11.3175C62.6089 11.3595 62.8259 11.4318 63.0079 11.5345C63.1946 11.6371 63.3392 11.7725 63.4419 11.9405C63.5446 12.1085 63.5959 12.3161 63.5959 12.5635C63.5959 12.7921 63.5399 12.9881 63.4279 13.1515C63.3206 13.3148 63.1689 13.4455 62.9729 13.5435C63.2669 13.6415 63.4839 13.7861 63.6239 13.9775C63.7639 14.1688 63.8339 14.4115 63.8339 14.7055C63.8339 15.2048 63.6519 15.5805 63.2879 15.8325C62.9239 16.0798 62.3662 16.2035 61.6149 16.2035ZM61.0199 13.9635V15.4405C61.1179 15.4498 61.2229 15.4568 61.3349 15.4615C61.4469 15.4661 61.5496 15.4685 61.6429 15.4685C61.8249 15.4685 61.9929 15.4568 62.1469 15.4335C62.3056 15.4101 62.4409 15.3705 62.5529 15.3145C62.6696 15.2538 62.7606 15.1745 62.8259 15.0765C62.8959 14.9785 62.9309 14.8525 62.9309 14.6985C62.9309 14.4231 62.8306 14.2318 62.6299 14.1245C62.4292 14.0171 62.1516 13.9635 61.7969 13.9635H61.0199ZM61.0199 13.2705H61.6429C61.9789 13.2705 62.2426 13.2238 62.4339 13.1305C62.6252 13.0325 62.7209 12.8598 62.7209 12.6125C62.7209 12.3791 62.6206 12.2135 62.4199 12.1155C62.2239 12.0175 61.9672 11.9685 61.6499 11.9685C61.5146 11.9685 61.3932 11.9708 61.2859 11.9755C61.1832 11.9801 61.0946 11.9871 61.0199 11.9965V13.2705ZM66.3663 13.4455C66.5763 13.0955 66.7816 12.7408 66.9823 12.3815C67.1829 12.0221 67.3649 11.6605 67.5283 11.2965H68.5083C68.2469 11.7911 67.9739 12.2835 67.6893 12.7735C67.4093 13.2588 67.1083 13.7488 66.7863 14.2435V16.1475H65.9043V14.2575C65.5823 13.7581 65.2789 13.2635 64.9943 12.7735C64.7096 12.2835 64.4366 11.7911 64.1753 11.2965H65.2113C65.3746 11.6605 65.5543 12.0221 65.7503 12.3815C65.9463 12.7408 66.1516 13.0955 66.3663 13.4455Z" fill="#F0F0F0" fill-opacity="0.5"/>
<g clip-path="url(#clip0_501_273)">
<path d="M18.2506 28.1175C18.3331 28.7231 19.049 29.1268 19.9257 29.1268C20.8478 29.1268 21.446 28.7348 21.446 28.2037C21.446 27.7138 21.0541 27.4747 20.002 27.2669L18.7849 27.0396C17.0706 26.728 16.1877 25.846 16.1877 24.5055C16.1877 22.7906 17.7349 21.6873 19.8865 21.6873C22.2134 21.6873 23.5873 22.7593 23.6121 24.4193H21.4275C21.3821 23.7764 20.757 23.3904 19.9071 23.3904C19.0572 23.3904 18.5332 23.7451 18.5332 24.284C18.5332 24.7622 18.9458 25.0249 19.9195 25.215L21.1242 25.4286C22.9623 25.7657 23.7874 26.5555 23.7874 27.9529C23.7874 29.7167 22.2588 30.8299 19.8679 30.8299C17.477 30.8299 16.0289 29.8363 16 28.1175H18.2506Z" fill="#F0F0F0"/>
<path d="M31.7585 30.681V27.1239H28.0452V30.681H25.6874V21.846H28.0514V25.311H31.7647V21.846H34.1225V30.681H31.7585Z" fill="#F0F0F0"/>
<path d="M35.8059 30.681L38.927 21.846H41.8151L44.9507 30.681H42.434L41.846 28.7407H38.8094L35.8059 30.681ZM39.2653 27.1239H41.386L40.3546 23.7196H40.303L39.2653 27.1239Z" fill="#F0F0F0"/>
<path d="M46.6319 30.681V21.846H50.6608C52.6577 21.846 54.0109 23.0768 54.0109 24.9818C54.0109 26.8867 52.5875 28.0979 50.5184 28.0979H48.9981L46.6319 30.681ZM48.9981 26.4085H50.0295C51.0342 26.4085 51.6262 25.9127 51.6262 24.9876C51.6262 24.0626 51.0342 23.5726 50.0419 23.5726H49.0105L48.9981 26.4085Z" fill="#F0F0F0"/>
<path d="M64.7813 26.2655C64.7813 29.0818 63.0093 30.8338 60.1914 30.8338C57.3734 30.8338 55.5973 29.0818 55.5973 26.2655C55.5973 23.4492 57.3755 21.6912 60.1914 21.6912C63.0072 21.6912 64.7813 23.4492 64.7813 26.2655ZM58.0067 26.2655C58.0067 27.9431 58.8649 29.0092 60.1914 29.0092C61.5178 29.0092 62.378 27.9431 62.378 26.2655C62.378 24.5878 61.5137 23.5217 60.1914 23.5217C58.869 23.5217 58.0067 24.5898 58.0067 26.2655Z" fill="#F0F0F0"/>
<path d="M69.1897 24.1175L70.3676 28.482H70.4192L72.2057 21.846H74.7967L71.8302 30.681H68.8535L65.8891 21.846" fill="#F0F0F0"/>
<path d="M74.8792 30.681L78.0045 21.846H80.8925L84.0178 30.681H81.5114L80.9235 28.7407H77.8828L74.8792 30.681ZM78.3407 27.1239H80.4614L79.4299 23.7196H79.3784L78.3407 27.1239Z" fill="#F0F0F0"/>
<path d="M88.0714 28.8681H91.9187V30.681H85.7053V21.846" fill="#F0F0F0"/>
<path d="M16.0659 42.5226L19.251 33.5211H22.1989L25.384 42.5226H22.8219L22.2175 40.5451H19.1231L16.0659 42.5226ZM19.5893 38.8989H21.7513L20.6992 35.4299H20.6476L19.5893 38.8989Z" fill="#F0F0F0"/>
<path d="M38.8877 37.6132V38.7185C38.8877 41.1762 37.2849 42.6794 34.5866 42.6794C31.6635 42.6794 29.9038 40.9645 29.9038 38.0071C29.9038 35.087 31.6635 33.3643 34.5268 33.3643C36.8249 33.3643 38.5453 34.6558 38.7887 36.5H36.4061C36.1688 35.7023 35.4592 35.2163 34.533 35.2163C33.1673 35.2163 32.3607 36.2315 32.3607 37.9856C32.3607 39.7396 33.254 40.8489 34.6299 40.8489C35.7212 40.8489 36.4865 40.2374 36.5484 39.332V39.1948H34.8156" fill="#F0F0F0"/>
<path d="M51.0196 42.5226H44.5236V33.5211H51.0196V35.3692H46.9351V37.1605H50.7762V38.844H46.9351V40.6784H51.0196V42.5226Z" fill="#F0F0F0"/>
<path d="M56.8205 42.5226V33.5211H58.7431L62.7637 38.7558H62.8153V33.5211H65.101V42.5226H63.1969L59.1578 37.231H59.1062V42.5226H56.8205Z" fill="#F0F0F0"/>
<path d="M70.4232 38.0326C70.4232 35.0928 72.1994 33.3917 75.0132 33.3917C77.4041 33.3917 79.2174 34.8537 79.2896 36.9743H76.9771C76.8595 35.9179 76.0673 35.2104 75.0132 35.2104C73.7032 35.2104 72.8719 36.2746 72.8719 38.0169C72.8719 39.7592 73.697 40.8567 75.0276 40.8567C76.0818 40.8567 76.8492 40.1963 76.9997 39.1458H79.3102C79.1988 41.2801 77.4536 42.6853 75.0214 42.6853C72.1849 42.6794 70.4232 40.9684 70.4232 38.0326Z" fill="#F0F0F0"/>
<path d="M86.5138 42.5226V39.43L83.2503 33.5211H85.8372L87.7206 37.2644H87.7681L89.6453 33.5211H92.1868L88.9233 39.43V42.5226H86.5138Z" fill="#F0F0F0"/>
</g>
<defs>
<clipPath id="clip0_501_273">
<rect width="77" height="24" fill="white" transform="translate(16 21.1475)"/>
</clipPath>
</defs>
</svg>
