<svg width="24" height="25" viewBox="0 0 24 25" fill="none" xmlns="http://www.w3.org/2000/svg">
<path d="M12 2.77246C9.5136 2.77246 7.12903 3.76018 5.37087 5.51833C3.61272 7.27649 2.625 9.66106 2.625 12.1475C2.625 14.6339 3.61272 17.0184 5.37087 18.7766C7.12903 20.5347 9.5136 21.5225 12 21.5225C13.9462 21.5225 15.9863 20.9384 17.4572 19.9606C17.4982 19.9333 17.5335 19.8982 17.561 19.8573C17.5885 19.8164 17.6077 19.7705 17.6174 19.7222C17.6272 19.6739 17.6273 19.6241 17.6179 19.5757C17.6084 19.5274 17.5895 19.4813 17.5622 19.4403C17.5349 19.3992 17.4998 19.3639 17.4589 19.3364C17.418 19.3089 17.3721 19.2898 17.3238 19.28C17.2755 19.2703 17.2257 19.2701 17.1773 19.2796C17.129 19.2891 17.0829 19.308 17.0419 19.3353C15.6891 20.2353 13.8038 20.7725 12 20.7725C10.2941 20.7725 8.62658 20.2666 7.20821 19.3189C5.78983 18.3712 4.68434 17.0241 4.03154 15.4481C3.37873 13.8721 3.20793 12.1379 3.54073 10.4648C3.87352 8.79172 4.69498 7.25489 5.9012 6.04866C7.10743 4.84244 8.64426 4.02099 10.3173 3.68819C11.9904 3.35539 13.7246 3.52619 15.3006 4.179C16.8767 4.83181 18.2237 5.93729 19.1714 7.35567C20.1192 8.77404 20.625 10.4416 20.625 12.1475C20.625 15.0837 19.2188 15.5225 18.375 15.5225C17.5312 15.5225 16.125 15.0837 16.125 12.1475V8.39746C16.125 8.298 16.0855 8.20262 16.0152 8.1323C15.9448 8.06197 15.8495 8.02246 15.75 8.02246C15.6505 8.02246 15.5552 8.06197 15.4848 8.1323C15.4145 8.20262 15.375 8.298 15.375 8.39746V9.78027C14.859 9.04462 14.1168 8.4976 13.2614 8.22237C12.406 7.94714 11.4841 7.95877 10.6359 8.25548C9.78775 8.55219 9.05965 9.11775 8.56233 9.86617C8.06501 10.6146 7.82569 11.505 7.88074 12.4019C7.9358 13.2988 8.28222 14.1532 8.86734 14.8351C9.45247 15.5171 10.2443 15.9894 11.1224 16.1801C12.0005 16.3709 12.9169 16.2696 13.7322 15.8919C14.5475 15.5141 15.2172 14.8804 15.6394 14.0871C16.0744 15.4831 17.0306 16.2725 18.375 16.2725C20.25 16.2725 21.375 14.7303 21.375 12.1475C21.3723 9.66189 20.3837 7.27891 18.6261 5.52135C16.8685 3.76379 14.4856 2.77519 12 2.77246ZM12 15.5225C11.3325 15.5225 10.68 15.3245 10.125 14.9537C9.56993 14.5828 9.13735 14.0557 8.88191 13.439C8.62646 12.8223 8.55962 12.1437 8.68985 11.489C8.82007 10.8343 9.14151 10.233 9.61351 9.76098C10.0855 9.28897 10.6869 8.96754 11.3416 8.83731C11.9963 8.70709 12.6749 8.77392 13.2916 9.02937C13.9083 9.28481 14.4354 9.7174 14.8062 10.2724C15.1771 10.8274 15.375 11.4799 15.375 12.1475C15.375 13.0426 15.0194 13.901 14.3865 14.5339C13.7535 15.1669 12.8951 15.5225 12 15.5225Z" fill="#F8F3ED"/>
</svg>
