<svg width="24" height="25" viewBox="0 0 24 25" fill="none" xmlns="http://www.w3.org/2000/svg">
<path d="M21.2306 5.1022C21.1857 5.06712 21.1335 5.04272 21.0777 5.03086C21.022 5.01901 20.9643 5.02 20.9091 5.03376L15.0441 6.50001L9.16781 3.56189C9.08769 3.52192 8.9959 3.51195 8.90906 3.53376L2.90906 5.03376C2.82794 5.05404 2.75591 5.10086 2.70445 5.16676C2.65298 5.23267 2.62501 5.31389 2.625 5.39751V18.8975C2.6249 18.9548 2.63793 19.0114 2.66308 19.0628C2.68823 19.1143 2.72484 19.1593 2.7701 19.1944C2.81536 19.2296 2.86806 19.2538 2.92417 19.2654C2.98027 19.277 3.03828 19.2756 3.09375 19.2613L8.95875 17.795L14.835 20.7331C14.9151 20.7731 15.0069 20.7831 15.0938 20.7613L21.0938 19.2613C21.1744 19.2405 21.2457 19.1934 21.2967 19.1276C21.3476 19.0617 21.3751 18.9808 21.375 18.8975V5.39751C21.3749 5.34056 21.3619 5.28436 21.3369 5.23319C21.3119 5.18203 21.2755 5.13723 21.2306 5.1022ZM9.375 4.50408L14.625 7.12908V19.791L9.375 17.166V4.50408ZM3.375 5.69001L8.625 4.37751V17.105L3.375 18.4175V5.69001ZM20.625 18.605L15.375 19.9175V7.19001L20.625 5.87751V18.605Z" fill="#F8F3ED"/>
</svg>
