<svg width="24" height="25" viewBox="0 0 24 25" fill="none" xmlns="http://www.w3.org/2000/svg">
<path d="M20.6981 15.3474L16.2713 13.3665C16.0996 13.2922 15.9122 13.2619 15.726 13.2783C15.5397 13.2946 15.3604 13.3572 15.2044 13.4602C15.1919 13.4681 15.18 13.4769 15.1688 13.4865L12.8438 15.4684C12.792 15.4999 12.7333 15.5182 12.6728 15.5217C12.6123 15.5251 12.5519 15.5135 12.4969 15.4881C10.9744 14.753 9.39845 13.1893 8.66345 11.6846C8.63745 11.63 8.62538 11.5699 8.62832 11.5095C8.63127 11.4491 8.64914 11.3904 8.68032 11.3387L10.6678 8.97524C10.6772 8.96399 10.6856 8.9518 10.6941 8.93961C10.7968 8.7838 10.8592 8.60488 10.8755 8.41896C10.8919 8.23304 10.8618 8.04598 10.7878 7.87461L8.80314 3.45524C8.70732 3.2314 8.54148 3.0447 8.33051 2.92315C8.11954 2.80161 7.87483 2.75179 7.63314 2.78117C6.45336 2.93672 5.37054 3.51642 4.58694 4.41199C3.80334 5.30756 3.37254 6.45775 3.37501 7.64774C3.37501 14.8852 9.26251 20.7727 16.5 20.7727C17.69 20.7752 18.8402 20.3444 19.7358 19.5608C20.6313 18.7772 21.211 17.6944 21.3666 16.5146C21.3957 16.274 21.3464 16.0304 21.226 15.8201C21.1056 15.6098 20.9204 15.444 20.6981 15.3474ZM20.625 16.4209C20.4926 17.42 20.0009 18.3367 19.2417 18.9996C18.4825 19.6625 17.5079 20.0262 16.5 20.0227C9.67689 20.0227 4.12501 14.4709 4.12501 7.64774C4.12152 6.63987 4.48523 5.66524 5.14813 4.90606C5.81103 4.14688 6.72775 3.65512 7.72689 3.52274C7.74187 3.5218 7.7569 3.5218 7.77189 3.52274C7.84587 3.52337 7.91801 3.54587 7.97923 3.5874C8.04045 3.62894 8.08802 3.68766 8.11595 3.75617L10.095 8.17555C10.1181 8.22956 10.1282 8.28824 10.1244 8.34687C10.1207 8.40549 10.1032 8.46241 10.0734 8.51305L8.08689 10.8755C8.07751 10.8877 8.06814 10.899 8.0597 10.9121C7.95386 11.074 7.89153 11.2604 7.87872 11.4533C7.86591 11.6463 7.90306 11.8393 7.98657 12.0137C8.80126 13.6815 10.4813 15.3493 12.1678 16.164C12.3434 16.247 12.5375 16.2831 12.7312 16.2688C12.9249 16.2545 13.1116 16.1903 13.2731 16.0824L13.3078 16.0562L15.6356 14.0762C15.6854 14.0458 15.7417 14.0276 15.7999 14.0232C15.8581 14.0188 15.9165 14.0283 15.9703 14.0509L20.3963 16.0346C20.471 16.0657 20.5336 16.1201 20.5748 16.1897C20.616 16.2593 20.6336 16.3404 20.625 16.4209Z" fill="#F8F3ED"/>
</svg>
